HIERARCHY
ROOT Hips
{
  OFFSET 5.84602e-005 68.8428 3.50346
  CHANNELS 6 Xposition Yposition Zposition Zrotation Xrotation Yrotation
  JOINT Spine
  {
    OFFSET 0 8.597 -4.6522
    CHANNELS 3 Zrotation Xrotation Yrotation
    JOINT Spine1
    {
      OFFSET 0 7.8454 0.4098
      CHANNELS 3 Zrotation Xrotation Yrotation
      JOINT Spine2
      {
        OFFSET 0 9.7078 -2.1609
        CHANNELS 3 Zrotation Xrotation Yrotation
        JOINT Neck
        {
          OFFSET 0 21.8761 -0.4549
          CHANNELS 3 Zrotation Xrotation Yrotation
          JOINT Head
          {
            OFFSET 0 12.3537 3.3602
            CHANNELS 3 Zrotation Xrotation Yrotation
            End Site
            {
              OFFSET 0.0001 18.9506 0.5657
            }
          }
        }
        JOINT LeftShoulder
        {
          OFFSET 2.2086 21.1115 7.2329
          CHANNELS 3 Zrotation Xrotation Yrotation
          JOINT LeftArm
          {
            OFFSET 13.1193 3.0282 -4.8998
            CHANNELS 3 Zrotation Xrotation Yrotation
            JOINT LeftForeArm
            {
              OFFSET 27.4081 -0.0973053 -0.2375
              CHANNELS 3 Zrotation Xrotation Yrotation
              JOINT LeftHand
              {
                OFFSET 22.8641 0.0662994 -0.1369
                CHANNELS 3 Zrotation Xrotation Yrotation
                JOINT LeftHandIndex1
                {
                  OFFSET 8.8614 0.775009 2.4612
                  CHANNELS 3 Zrotation Xrotation Yrotation
                  JOINT LeftHandIndex2
                  {
                    OFFSET 3.3146 -0.808304 0.5841
                    CHANNELS 3 Zrotation Xrotation Yrotation
                    JOINT LeftHandIndex3
                    {
                      OFFSET 2.2628 -0.552002 0.3989
                      CHANNELS 3 Zrotation Xrotation Yrotation
                      End Site
                      {
                        OFFSET 1.6102 -0.4807 0.2612
                      }
                    }
                  }
                }
                JOINT LeftHandMiddle1
                {
                  OFFSET 8.9937 0.895004 0.2143
                  CHANNELS 3 Zrotation Xrotation Yrotation
                  JOINT LeftHandMiddle2
                  {
                    OFFSET 4.0984 0.0113983 -0.0242
                    CHANNELS 3 Zrotation Xrotation Yrotation
                    JOINT LeftHandMiddle3
                    {
                      OFFSET 2.2716 0.00689697 -0.0138001
                      CHANNELS 3 Zrotation Xrotation Yrotation
                      End Site
                      {
                        OFFSET 2.0404 -0.1441 0.0027
                      }
                    }
                  }
                }
                JOINT LeftHandRing1
                {
                  OFFSET 8.5234 0.597198 -2.0164
                  CHANNELS 3 Zrotation Xrotation Yrotation
                  JOINT LeftHandRing2
                  {
                    OFFSET 3.7188 -0.188293 -0.2328
                    CHANNELS 3 Zrotation Xrotation Yrotation
                    JOINT LeftHandRing3
                    {
                      OFFSET 2.1191 -0.106598 -0.1332
                      CHANNELS 3 Zrotation Xrotation Yrotation
                      End Site
                      {
                        OFFSET 1.8737 -0.2304 -0.0886
                      }
                    }
                  }
                }
                JOINT LeftHandPinky1
                {
                  OFFSET 7.9094 -0.601089 -3.4825
                  CHANNELS 3 Zrotation Xrotation Yrotation
                  JOINT LeftHandPinky2
                  {
                    OFFSET 2.2874 -0.477005 -0.6314
                    CHANNELS 3 Zrotation Xrotation Yrotation
                    JOINT LeftHandPinky3
                    {
                      OFFSET 1.6774 -0.349396 -0.4633
                      CHANNELS 3 Zrotation Xrotation Yrotation
                      End Site
                      {
                        OFFSET 1.4888 -0.4091 -0.3416
                      }
                    }
                  }
                }
                JOINT LeftHandThumb1
                {
                  OFFSET 1.833 -1.3875 1.3896
                  CHANNELS 3 Zrotation Xrotation Yrotation
                  JOINT LeftHandThumb2
                  {
                    OFFSET 3.4129 -1.121 2.5732
                    CHANNELS 3 Zrotation Xrotation Yrotation
                    JOINT LeftHandThumb3
                    {
                      OFFSET 2.2474 -0.804199 1.6192
                      CHANNELS 3 Zrotation Xrotation Yrotation
                      End Site
                      {
                        OFFSET 1.6527 -0.5689 1.1317
                      }
                    }
                  }
                }
              }
            }
          }
        }
        JOINT RightShoulder
        {
          OFFSET -2.2086 21.1115 7.2329
          CHANNELS 3 Zrotation Xrotation Yrotation
          JOINT RightArm
          {
            OFFSET -13.1216 3.0287 -4.9007
            CHANNELS 3 Zrotation Xrotation Yrotation
            JOINT RightForeArm
            {
              OFFSET -27.4081 -0.0973053 -0.2375
              CHANNELS 3 Zrotation Xrotation Yrotation
              JOINT RightHand
              {
                OFFSET -22.8641 0.0664063 -0.1369
                CHANNELS 3 Zrotation Xrotation Yrotation
                JOINT RightHandIndex1
                {
                  OFFSET -8.8614 0.774994 2.4612
                  CHANNELS 3 Zrotation Xrotation Yrotation
                  JOINT RightHandIndex2
                  {
                    OFFSET -3.3146 -0.808304 0.5841
                    CHANNELS 3 Zrotation Xrotation Yrotation
                    JOINT RightHandIndex3
                    {
                      OFFSET -2.2628 -0.552002 0.3989
                      CHANNELS 3 Zrotation Xrotation Yrotation
                      End Site
                      {
                        OFFSET -1.6102 -0.4807 0.2612
                      }
                    }
                  }
                }
                JOINT RightHandMiddle1
                {
                  OFFSET -8.9937 0.894989 0.2143
                  CHANNELS 3 Zrotation Xrotation Yrotation
                  JOINT RightHandMiddle2
                  {
                    OFFSET -4.0984 0.0113983 -0.0242
                    CHANNELS 3 Zrotation Xrotation Yrotation
                    JOINT RightHandMiddle3
                    {
                      OFFSET -2.2716 0.00691223 -0.0138001
                      CHANNELS 3 Zrotation Xrotation Yrotation
                      End Site
                      {
                        OFFSET -2.0404 -0.1441 0.0027
                      }
                    }
                  }
                }
                JOINT RightHandRing1
                {
                  OFFSET -8.5234 0.597198 -2.0164
                  CHANNELS 3 Zrotation Xrotation Yrotation
                  JOINT RightHandRing2
                  {
                    OFFSET -3.7188 -0.188309 -0.2328
                    CHANNELS 3 Zrotation Xrotation Yrotation
                    JOINT RightHandRing3
                    {
                      OFFSET -2.1191 -0.106598 -0.1332
                      CHANNELS 3 Zrotation Xrotation Yrotation
                      End Site
                      {
                        OFFSET -1.8737 -0.2304 -0.0886
                      }
                    }
                  }
                }
                JOINT RightHandPinky1
                {
                  OFFSET -7.9094 -0.601105 -3.4825
                  CHANNELS 3 Zrotation Xrotation Yrotation
                  JOINT RightHandPinky2
                  {
                    OFFSET -2.2874 -0.477005 -0.6314
                    CHANNELS 3 Zrotation Xrotation Yrotation
                    JOINT RightHandPinky3
                    {
                      OFFSET -1.6774 -0.349396 -0.4633
                      CHANNELS 3 Zrotation Xrotation Yrotation
                      End Site
                      {
                        OFFSET -1.4888 -0.4091 -0.3416
                      }
                    }
                  }
                }
                JOINT RightHandThumb1
                {
                  OFFSET -1.833 -1.38751 1.3896
                  CHANNELS 3 Zrotation Xrotation Yrotation
                  JOINT RightHandThumb2
                  {
                    OFFSET -3.41299 -1.12099 2.5732
                    CHANNELS 3 Zrotation Xrotation Yrotation
                    JOINT RightHandThumb3
                    {
                      OFFSET -2.24741 -0.804108 1.6192
                      CHANNELS 3 Zrotation Xrotation Yrotation
                      End Site
                      {
                        OFFSET -1.6527 -0.5689 1.1317
                      }
                    }
                  }
                }
              }
            }
          }
        }
      }
    }
  }
  JOINT RightUpLeg
  {
    OFFSET -9.1966 3.8861 -0.7581
    CHANNELS 3 Zrotation Xrotation Yrotation
    JOINT RightLeg
    {
      OFFSET -0.7359 -41.0265 0
      CHANNELS 3 Zrotation Xrotation Yrotation
      JOINT RightFoot
      {
        OFFSET 0 -40.2855 0
        CHANNELS 3 Zrotation Xrotation Yrotation
        JOINT RightToeBase
        {
          OFFSET 0 -5.6122 11.7359
          CHANNELS 3 Zrotation Xrotation Yrotation
          End Site
          {
            OFFSET 0 0 7.8731
          }
        }
      }
    }
  }
  JOINT LeftUpLeg
  {
    OFFSET 9.1965 3.8864 -0.7581
    CHANNELS 3 Zrotation Xrotation Yrotation
    JOINT LeftLeg
    {
      OFFSET 0.7359 -41.0268 0
      CHANNELS 3 Zrotation Xrotation Yrotation
      JOINT LeftFoot
      {
        OFFSET 0 -40.2855 0
        CHANNELS 3 Zrotation Xrotation Yrotation
        JOINT LeftToeBase
        {
          OFFSET 0 -5.6122 11.7359
          CHANNELS 3 Zrotation Xrotation Yrotation
          End Site
          {
            OFFSET 0 0 7.8731
          }
        }
      }
    }
  }
}
MOTION
Frames:	4
Frame Time:	0.0333333
5.84602e-005 68.8428 3.50346 0 0 -0 0 0 -0 0 0 -0 0 0 -0 0 0 -0 0 0 -0 0 0 -0 0 0 -0 0 0 -0 0 0 -0 0 0 -0 0 0 -0 0 0 -0 0 0 -0 -0.0146107 -8.87603e-005 -2.63497e-007 2.99804e-018 -2.42657e-020 -1.42182e-022 0 0 -0 -0.0187562 -0.001176 5.858e-005 5.06224e-018 3.88251e-019 1.21329e-020 0 0 -0 -0.012269 -0.00324817 0.000675346 -1.74678e-018 3.88251e-019 -0 0 0 -0 0 0 -0 0 0 -0 0 0 -0 0 0 -0 0 0 -0 0 0 -0 0 0 -0 0 0 -0 0 0 -0 0 0 -0 0.0149955 -9.10982e-005 2.64101e-007 -9.69331e-018 1.21329e-020 -4.7394e-023 0 0 -0 0.0189956 -0.00119102 -5.96516e-005 -5.41541e-019 0 2.42657e-020 0 0 -0 0.0122698 -0.00324857 -0.000673756 -2.00796e-019 0 -1.94126e-019 0 0 -0 0 0 -0 0 0 -0 3.39842 1.33031 -0.0637918 -5.65207e-008 0.834868 -0.000436188 -3.39935 -2.16518 -0.0642563 -8.89002e-024 -1.18485e-023 -1.48106e-024 -3.39844 1.35642 0.0640283 -3.18788e-007 0.782166 -0.000588827 3.39931 -2.13858 0.0634662 1.1399e-023 0 -0 
5.38186 -0.804054 -49.8424 89.9959 -75.0026 -0.0031132 -3.09244 -4.70871 -0.997813 -6.29873 -9.35561 -2.26135 -6.29876 -9.3556 -2.26136 8.99871 -1.97985 0.311875 -5.19352e-007 14.9982 4.55677e-006 -5.78157 -7.38979 -1.43862 -69.6814 -24.3889 -30.9611 -53.4781 6.21323 -10.9468 -42.3677 -3.30845 -0.188806 -3.18055e-015 3.18055e-015 4.77083e-015 2.75368e-007 -4.83011e-007 6.45502e-007 1.59028e-015 0 3.18055e-015 -3.18055e-015 3.18055e-015 4.77083e-015 -0.0145141 -8.703e-005 1.02167e-007 1.59028e-015 6.36111e-015 1.59028e-015 -3.18055e-015 3.18055e-015 4.77083e-015 -0.018775 -0.00117947 5.83457e-005 1.59028e-015 0 -1.59028e-015 -3.18055e-015 3.18055e-015 4.77083e-015 -0.0122695 -0.00324604 0.000676256 -1.59028e-015 3.18055e-015 1.59028e-015 -3.18055e-015 3.18055e-015 4.77083e-015 2.75368e-007 -4.83011e-007 6.45502e-007 1.59028e-015 0 3.18055e-015 21.2855 5.01167 6.88323 59.7435 -3.43788 23.7181 74.1791 -37.6743 71.5588 71.7937 14.0843 -30.0721 -4.27359e-008 -1.17347e-007 -1.73038e-007 -5.56597e-015 0 3.18055e-015 -0 0 1.59028e-015 -4.27359e-008 -1.17347e-007 -1.73038e-007 0.0149258 -9.08336e-005 -2.96565e-006 2.38542e-015 -3.18055e-015 4.77083e-015 -4.27359e-008 -1.17347e-007 -1.73038e-007 0.0189773 -0.00118795 -6.19455e-005 -7.95139e-016 0 -1.59028e-015 -4.27359e-008 -1.17347e-007 -1.73038e-007 0.0122614 -0.0032441 -0.000677084 5.56597e-015 3.18055e-015 -6.36111e-015 -4.27359e-008 -1.17347e-007 -1.73038e-007 -5.56597e-015 0 3.18055e-015 -0 0 1.59028e-015 10.6099 -20.3053 -14.6672 -89.4922 62.3837 61.9923 12.5866 8.09548 5.84296 2.5842e-015 3.97569e-016 -0 20.7179 -34.7028 24.2475 -64.0858 41.5034 39.5114 20.0865 23.1023 2.9767 -4.27257e-007 1.3729e-006 -8.58918e-007 
4.98879 -0.802271 -49.8871 89.9997 -76.4382 -0.000272238 -3.08075 -4.24652 -0.991019 -6.26046 -8.43265 -2.21923 -6.26048 -8.43268 -2.21925 8.98425 -2.19572 0.343663 -1.5177e-007 14.2977 1.54456e-006 -5.3565 -8.1843 -1.47312 -69.6814 -24.3889 -30.9611 -53.4781 6.21323 -10.9468 -42.3687 -3.34931 -0.63982 -1.59028e-015 -9.54166e-015 -0 -3.18055e-015 0 4.77083e-015 -4.77083e-015 0 -6.36111e-015 -1.59028e-015 -9.54166e-015 -0 -0.0146106 -8.70331e-005 -4.18712e-007 6.36111e-015 9.54166e-015 -4.77083e-015 -1.59028e-015 -9.54166e-015 -0 -0.0187438 -0.00117297 6.25196e-005 6.36111e-015 -3.18055e-015 -1.59028e-015 -1.59028e-015 -9.54166e-015 -0 -0.0122688 -0.00325163 0.000671594 3.18055e-015 3.18055e-015 -1.59028e-015 -1.59028e-015 -9.54166e-015 -0 -3.18055e-015 0 4.77083e-015 -4.77083e-015 0 -6.36111e-015 21.2855 5.01164 6.88324 59.7435 -3.43788 23.7181 74.1792 -37.6743 71.5588 71.7937 14.0843 -30.0721 -8.74241e-008 -2.33009e-007 -3.46773e-007 -4.3712e-008 -1.16505e-007 -1.73386e-007 -8.74241e-008 -2.33009e-007 -3.46773e-007 -8.74241e-008 -2.33009e-007 -3.46773e-007 0.0150318 -9.24327e-005 -7.26966e-008 -8.74235e-008 -2.33055e-007 -3.46742e-007 -8.74241e-008 -2.33009e-007 -3.46773e-007 0.0190003 -0.00119461 -5.92204e-005 -8.74264e-008 -2.33067e-007 -3.46733e-007 -8.74241e-008 -2.33009e-007 -3.46773e-007 0.0122533 -0.00324484 -0.000675719 -8.74318e-008 -2.33047e-007 -3.46745e-007 -8.74241e-008 -2.33009e-007 -3.46773e-007 -4.3712e-008 -1.16505e-007 -1.73386e-007 -8.74241e-008 -2.33009e-007 -3.46773e-007 10.4606 -18.5062 -14.9183 -88.4205 62.4466 61.0534 12.5809 8.10405 5.85847 1.09332e-015 0 -0 19.9845 -33.4166 23.1644 -63.7758 41.6866 39.4472 19.5987 22.8548 3.21422 1.51833e-006 -1.03081e-006 4.46328e-006 
4.59622 -0.800553 -49.9368 90.0042 -77.8774 0.00342007 -3.06918 -3.78324 -0.984406 -6.22325 -7.50752 -2.17796 -6.22325 -7.50751 -2.17796 8.97022 -2.41205 0.375325 -1.78827e-006 13.5955 -7.9958e-007 -4.93054 -8.97979 -1.50175 -69.6814 -24.3889 -30.9611 -53.4781 6.21322 -10.9468 -42.3701 -3.39018 -1.09098 -5.50172e-007 9.60734e-007 -1.29516e-006 -1.10034e-006 1.92147e-006 -2.59031e-006 -5.50172e-007 9.60734e-007 -1.29516e-006 -5.50172e-007 9.60734e-007 -1.29516e-006 -0.0145777 -8.5025e-005 1.601e-006 -5.50188e-007 9.60899e-007 -1.29503e-006 -5.50172e-007 9.60734e-007 -1.29516e-006 -0.0187644 -0.00117738 5.67892e-005 -5.50204e-007 9.60945e-007 -1.29499e-006 -5.50172e-007 9.60734e-007 -1.29516e-006 -0.0122525 -0.00324323 0.000672547 2.00737e-006 2.74081e-006 -1.26585e-006 -5.50172e-007 9.60734e-007 -1.29516e-006 -1.10034e-006 1.92147e-006 -2.59031e-006 -5.50172e-007 9.60734e-007 -1.29516e-006 21.2855 5.01166 6.88323 59.7435 -3.43787 23.7181 74.1791 -37.6743 71.5588 71.7937 14.0843 -30.0721 1.59028e-015 -1.27222e-014 -0 6.7041e-008 1.7348e-007 2.60584e-007 -2.2347e-008 -5.78268e-008 -8.68613e-008 1.59028e-015 -1.27222e-014 -0 0.0150633 -9.21317e-005 -1.60424e-008 -2.23469e-008 -5.78382e-008 -8.68537e-008 1.59028e-015 -1.27222e-014 -0 0.0189582 -0.00118999 -5.77318e-005 -2.23477e-008 -5.78412e-008 -8.68515e-008 1.59028e-015 -1.27222e-014 -0 0.0123281 -0.00326174 -0.000680614 -2.2349e-008 -5.78363e-008 -8.68544e-008 1.59028e-015 -1.27222e-014 -0 6.7041e-008 1.7348e-007 2.60584e-007 -2.2347e-008 -5.78268e-008 -8.68613e-008 10.3214 -16.6987 -15.1629 -87.3437 62.5014 60.1092 12.575 8.11265 5.87399 -3.5746e-008 2.85039e-007 -3.15163e-007 19.2882 -32.1148 22.1129 -63.4635 41.8693 39.3804 19.1123 22.6053 3.44918 1.16854e-006 1.06141e-007 -1.06793e-006 
